name analog
datacolumns 19
datarows 50
range 0.255 0.2795
endheader
time	ground_force_vx	ground_force_vy	ground_force_vz	ground_force_px	ground_force_py	ground_force_pz	l_ground_force_vx	l_ground_force_vy	l_ground_force_vz	l_ground_force_px	l_ground_force_py	l_ground_force_pz	ground_torque_x	ground_torque_y	ground_torque_z	l_ground_torque_x	l_ground_torque_y	l_ground_torque_z
0.255	-0.0	-0.0	-0.0	3.744181871414185	-8.911445617675781	-824.322021484375	-0.0	-0.0	-0.0	-0.0	-0.0	-0.0	-0.0	-0.0	-0.0	-0.0	-0.0	-0.0
0.2555	-0.0	-0.0	-0.0	0.2666792571544647	-8.647075653076172	-819.0205078125	-0.0	-0.0	-0.0	-0.0	-0.0	-0.0	-0.0	-0.0	-0.0	-0.0	-0.0	-0.0
0.256	-0.0	-0.0	-0.0	-2.3202896118164062	-8.377849578857422	-812.307373046875	-0.0	-0.0	-0.0	-0.0	-0.0	-0.0	-0.0	-0.0	-0.0	-0.0	-0.0	-0.0
0.2565	-0.0	-0.0	-0.0	-4.639277458190918	-7.931614398956299	-808.7794799804688	-0.0	-0.0	-0.0	-0.0	-0.0	-0.0	-0.0	-0.0	-0.0	-0.0	-0.0	-0.0
0.257	-0.0	-0.0	-0.0	-6.157104015350342	-7.13043212890625	-802.77587890625	-0.0	-0.0	-0.0	-0.0	-0.0	-0.0	-0.0	-0.0	-0.0	-0.0	-0.0	-0.0
0.2575	-0.0	-0.0	-0.0	-8.385974884033203	-6.239315032958984	-794.6549072265625	-0.0	-0.0	-0.0	-0.0	-0.0	-0.0	-0.0	-0.0	-0.0	-0.0	-0.0	-0.0
0.258	-0.0	-0.0	-0.0	-9.546401977539062	-5.526084899902344	-789.0040283203125	-0.0	-0.0	-0.0	-0.0	-0.0	-0.0	-0.0	-0.0	-0.0	-0.0	-0.0	-0.0
0.2585	-0.0	-0.0	-0.0	-11.59745979309082	-5.436861038208008	-782.9991455078125	-0.0	-0.0	-0.0	-0.0	-0.0	-0.0	-0.0	-0.0	-0.0	-0.0	-0.0	-0.0
0.259	-0.0	-0.0	-0.0	-12.4896240234375	-5.080402374267578	-777.702392578125	-0.0	-0.0	-0.0	-0.0	-0.0	-0.0	-0.0	-0.0	-0.0	-0.0	-0.0	-0.0
0.2595	-0.0	-0.0	-0.0	-12.40129280090332	-3.832951068878174	-771.7001342773438	-0.0	-0.0	-0.0	-0.0	-0.0	-0.0	-0.0	-0.0	-0.0	-0.0	-0.0	-0.0
0.26	-0.0	-0.0	-0.0	-13.470300674438477	-3.120697259902954	-769.5803833007812	-0.0	-0.0	-0.0	-0.0	-0.0	-0.0	-0.0	-0.0	-0.0	-0.0	-0.0	-0.0
0.2605	-0.0	-0.0	-0.0	-13.380379676818848	-2.5850207805633545	-766.0443725585938	-0.0	-0.0	-0.0	-0.0	-0.0	-0.0	-0.0	-0.0	-0.0	-0.0	-0.0	-0.0
0.261	-0.0	-0.0	-0.0	-13.293540954589844	-2.761575698852539	-763.2206420898438	-0.0	-0.0	-0.0	-0.0	-0.0	-0.0	-0.0	-0.0	-0.0	-0.0	-0.0	-0.0
0.2615	-0.0	-0.0	-0.0	-13.11394500732422	-3.651458740234375	-761.1056518554688	-0.0	-0.0	-0.0	-0.0	-0.0	-0.0	-0.0	-0.0	-0.0	-0.0	-0.0	-0.0
0.262	-0.0	-0.0	-0.0	-12.22271728515625	-3.921299457550049	-760.3998413085938	-0.0	-0.0	-0.0	-0.0	-0.0	-0.0	-0.0	-0.0	-0.0	-0.0	-0.0	-0.0
0.2625	-0.0	-0.0	-0.0	-11.955194473266602	-4.101969242095947	-759.6881103515625	-0.0	-0.0	-0.0	-0.0	-0.0	-0.0	-0.0	-0.0	-0.0	-0.0	-0.0	-0.0
0.263	-0.0	-0.0	-0.0	-12.041707038879396	-4.4559502601623535	-759.685546875	-0.0	-0.0	-0.0	-0.0	-0.0	-0.0	-0.0	-0.0	-0.0	-0.0	-0.0	-0.0
0.2635	-0.0	-0.0	-0.0	-11.062103271484377	-4.279551029205322	-759.692626953125	-0.0	-0.0	-0.0	-0.0	-0.0	-0.0	-0.0	-0.0	-0.0	-0.0	-0.0	-0.0
0.264	-0.0	-0.0	-0.0	-10.61676025390625	-4.903589248657227	-760.387939453125	-0.0	-0.0	-0.0	-0.0	-0.0	-0.0	-0.0	-0.0	-0.0	-0.0	-0.0	-0.0
0.2645	-0.0	-0.0	-0.0	-9.36474323272705	-5.257907867431641	-759.6994018554688	-0.0	-0.0	-0.0	-0.0	-0.0	-0.0	-0.0	-0.0	-0.0	-0.0	-0.0	-0.0
0.265	-0.0	-0.0	-0.0	-7.406154155731201	-5.615215301513672	-761.8124389648438	-0.0	-0.0	-0.0	-0.0	-0.0	-0.0	-0.0	-0.0	-0.0	-0.0	-0.0	-0.0
0.2655	-0.0	-0.0	-0.0	-5.712158679962158	-5.969053268432617	-762.526123046875	-0.0	-0.0	-0.0	-0.0	-0.0	-0.0	-0.0	-0.0	-0.0	-0.0	-0.0	-0.0
0.266	-0.0	-0.0	-0.0	-4.904632568359375	-6.143195152282715	-763.9397583007812	-0.0	-0.0	-0.0	-0.0	-0.0	-0.0	-0.0	-0.0	-0.0	-0.0	-0.0	-0.0
0.2665	-0.0	-0.0	-0.0	-3.654524564743042	-5.880537509918213	-765.0164794921875	-0.0	-0.0	-0.0	-0.0	-0.0	-0.0	-0.0	-0.0	-0.0	-0.0	-0.0	-0.0
0.267	-0.0	-0.0	-0.0	-2.2369394302368164	-5.350047588348389	-767.0980224609375	-0.0	-0.0	-0.0	-0.0	-0.0	-0.0	-0.0	-0.0	-0.0	-0.0	-0.0	-0.0
0.2675	-0.0	-0.0	-0.0	-1.6069566011428833	-4.908004283905029	-767.1114501953125	-0.0	-0.0	-0.0	-0.0	-0.0	-0.0	-0.0	-0.0	-0.0	-0.0	-0.0	-0.0
0.268	-0.0	-0.0	-0.0	-0.717388927936554	-4.637248516082764	-768.5244140625	-0.0	-0.0	-0.0	-0.0	-0.0	-0.0	-0.0	-0.0	-0.0	-0.0	-0.0	-0.0
0.2685	-0.0	-0.0	-0.0	-0.1784210205078125	-4.453897953033447	-769.2623291015625	-0.0	-0.0	-0.0	-0.0	-0.0	-0.0	-0.0	-0.0	-0.0	-0.0	-0.0	-0.0
0.269	-0.0	-0.0	-0.0	0.3582303822040558	-4.191903114318848	-774.849365234375	-0.0	-0.0	-0.0	-0.0	-0.0	-0.0	-0.0	-0.0	-0.0	-0.0	-0.0	-0.0
0.2695	-0.0	-0.0	-0.0	0.8935481309890747	-3.9231793880462646	-775.6288452148438	-0.0	-0.0	-0.0	-0.0	-0.0	-0.0	-0.0	-0.0	-0.0	-0.0	-0.0	-0.0
0.27	-0.0	-0.0	-0.0	0.1814618110656738	-3.041066884994507	-777.3429565429688	-0.0	-0.0	-0.0	-0.0	-0.0	-0.0	-0.0	-0.0	-0.0	-0.0	-0.0	-0.0
0.2705	-0.0	-0.0	-0.0	-1.6057891845703125	-2.4049391746521	-778.0867309570312	-0.0	-0.0	-0.0	-0.0	-0.0	-0.0	-0.0	-0.0	-0.0	-0.0	-0.0	-0.0
0.271	-0.0	-0.0	-0.0	-3.2132389545440674	-0.7955374717712402	-775.9888916015625	-0.0	-0.0	-0.0	-0.0	-0.0	-0.0	-0.0	-0.0	-0.0	-0.0	-0.0	-0.0
0.2715	-0.0	-0.0	-0.0	-5.615111827850342	0.0068611502647399	-774.5779418945312	-0.0	-0.0	-0.0	-0.0	-0.0	-0.0	-0.0	-0.0	-0.0	-0.0	-0.0	-0.0
0.272	-0.0	-0.0	-0.0	-6.867424964904785	0.9697384238243104	-775.5619506835938	-0.0	-0.0	-0.0	-0.0	-0.0	-0.0	-0.0	-0.0	-0.0	-0.0	-0.0	-0.0
0.2725	-0.0	-0.0	-0.0	-7.766899108886719	1.160555124282837	-775.5684204101562	-0.0	-0.0	-0.0	-0.0	-0.0	-0.0	-0.0	-0.0	-0.0	-0.0	-0.0	-0.0
0.273	-0.0	-0.0	-0.0	-9.016035079956056	1.081101894378662	-774.5692749023438	-0.0	-0.0	-0.0	-0.0	-0.0	-0.0	-0.0	-0.0	-0.0	-0.0	-0.0	-0.0
0.2735	-0.0	-0.0	-0.0	-9.910332679748535	1.237877368927002	-773.11083984375	-0.0	-0.0	-0.0	-0.0	-0.0	-0.0	-0.0	-0.0	-0.0	-0.0	-0.0	-0.0
0.274	-0.0	-0.0	-0.0	-10.626394271850586	0.8954378366470337	-774.1622314453125	-0.0	-0.0	-0.0	-0.0	-0.0	-0.0	-0.0	-0.0	-0.0	-0.0	-0.0	-0.0
0.2745	-0.0	-0.0	-0.0	-11.238388061523438	1.778339147567749	-777.6768798828125	-0.0	-0.0	-0.0	-0.0	-0.0	-0.0	-0.0	-0.0	-0.0	-0.0	-0.0	-0.0
0.275	-0.0	-0.0	-0.0	-10.520198822021484	2.5803582668304443	-780.8458251953125	-0.0	-0.0	-0.0	-0.0	-0.0	-0.0	-0.0	-0.0	-0.0	-0.0	-0.0	-0.0
0.2755	-0.0	-0.0	-0.0	-10.341550827026367	2.86132287979126	-784.0140991210938	-0.0	-0.0	-0.0	-0.0	-0.0	-0.0	-0.0	-0.0	-0.0	-0.0	-0.0	-0.0
0.276	-0.0	-0.0	-0.0	-9.98686408996582	3.47137713432312	-783.3531494140625	-0.0	-0.0	-0.0	-0.0	-0.0	-0.0	-0.0	-0.0	-0.0	-0.0	-0.0	-0.0
0.2765	-0.0	-0.0	-0.0	-10.09295654296875	4.897308826446533	-782.3128662109375	-0.0	-0.0	-0.0	-0.0	-0.0	-0.0	-0.0	-0.0	-0.0	-0.0	-0.0	-0.0
0.277	-0.0	-0.0	-0.0	-10.97540283203125	5.694314956665039	-781.6070556640625	-0.0	-0.0	-0.0	-0.0	-0.0	-0.0	-0.0	-0.0	-0.0	-0.0	-0.0	-0.0
0.2775	-0.0	-0.0	-0.0	-11.23794651031494	6.239128112792969	-780.4970703125	-0.0	-0.0	-0.0	-0.0	-0.0	-0.0	-0.0	-0.0	-0.0	-0.0	-0.0	-0.0
0.278	-0.0	-0.0	-0.0	-10.980856895446776	5.984999179840088	-782.9788818359375	-0.0	-0.0	-0.0	-0.0	-0.0	-0.0	-0.0	-0.0	-0.0	-0.0	-0.0	-0.0
0.2785	-0.0	-0.0	-0.0	-10.242875099182127	5.631533622741699	-786.0385131835938	-0.0	-0.0	-0.0	-0.0	-0.0	-0.0	-0.0	-0.0	-0.0	-0.0	-0.0	-0.0
0.279	-0.0	-0.0	-0.0	-8.926650047302246	5.523287773132324	-787.9111938476562	-0.0	-0.0	-0.0	-0.0	-0.0	-0.0	-0.0	-0.0	-0.0	-0.0	-0.0	-0.0
0.2795	-0.0	-0.0	-0.0	-7.692232131958008	5.353569984436035	-791.4534301757812	-0.0	-0.0	-0.0	-0.0	-0.0	-0.0	-0.0	-0.0	-0.0	-0.0	-0.0	-0.0
